<svg width="21" height="21" viewBox="0 0 21 21" fill="none" xmlns="http://www.w3.org/2000/svg">
<g id="SVG" clip-path="url(#clip0_1_22)">
<path id="Vector" d="M20.2841 19.1312L14.7531 13.6002C15.9874 12.0073 16.5687 10.0041 16.3788 7.99791C16.1889 5.99174 15.2421 4.1332 13.7309 2.80016C12.2197 1.46712 10.2575 0.75966 8.24332 0.821623C6.22913 0.883586 4.31416 1.71032 2.88774 3.13373C1.46132 4.55714 0.630554 6.47037 0.564343 8.48442C0.498132 10.4985 1.20145 12.4621 2.5313 13.9761C3.86115 15.4902 5.71769 16.4409 7.72346 16.635C9.72922 16.8291 11.7336 16.2521 13.3291 15.0212L18.8601 20.5532C19.0506 20.7321 19.3033 20.8298 19.5646 20.8257C19.8259 20.8216 20.0754 20.716 20.2602 20.5312C20.445 20.3464 20.5506 20.0969 20.5547 19.8356C20.5588 19.5743 20.461 19.3217 20.2821 19.1312H20.2841ZM4.31712 12.9392C3.49071 12.113 2.92786 11.0603 2.69977 9.91419C2.47167 8.76811 2.58857 7.58012 3.03568 6.50048C3.4828 5.42084 4.24004 4.49803 5.21164 3.84878C6.18324 3.19953 7.32556 2.85299 8.49412 2.85299C9.66269 2.85299 10.805 3.19953 11.7766 3.84878C12.7482 4.49803 13.5054 5.42084 13.9526 6.50048C14.3997 7.58012 14.5166 8.76811 14.2885 9.91419C14.0604 11.0603 13.4975 12.113 12.6711 12.9392C12.1252 13.4923 11.4748 13.9315 10.7578 14.2312C10.0407 14.531 9.2713 14.6853 8.49412 14.6853C7.71695 14.6853 6.94752 14.531 6.23048 14.2312C5.51344 13.9315 4.86307 13.4923 4.31712 12.9392Z" fill="black"/>
</g>
<defs>
<clipPath id="clip0_1_22">
<rect width="20" height="20" fill="white" transform="translate(0.579102 0.843262)"/>
</clipPath>
</defs>
</svg>
